<svg xmlns="http://www.w3.org/2000/svg" xmlns:xlink="http://www.w3.org/1999/xlink" width="100%" height="100%" version="1.1" viewBox="0 0 24 24" xml:space="preserve" style="fill-rule:evenodd;clip-rule:evenodd;stroke-linejoin:round;stroke-miterlimit:2"><g id="Restore"><path d="M3.852,6.82L4.642,6.03L4.642,4.926C4.642,4.769 4.769,4.642 4.926,4.642L6.03,4.642L6.82,3.852L4.231,3.852C4.022,3.852 3.852,4.022 3.852,4.231L3.852,6.82ZM0.5,3.468L3.089,3.468C3.298,3.468 3.468,3.298 3.468,3.089L3.468,0.5L2.678,1.29L2.678,2.394C2.678,2.551 2.551,2.678 2.394,2.678L1.29,2.678L0.5,3.468Z" transform="matrix(3.27869,0,0,3.27869,0,0)" style="fill:#c8c8c8"/></g></svg>